<?xml version="1.0" encoding="us-ascii" standalone="no"?><svg xmlns="http://www.w3.org/2000/svg" xmlns:xlink="http://www.w3.org/1999/xlink" contentStyleType="text/css" height="1096px" preserveAspectRatio="none" style="width:713px;height:1096px;background:#FFFFFF;" version="1.1" viewBox="0 0 713 1096" width="713px" zoomAndPan="magnify"><defs/><g><rect fill="#F1F1F1" height="34.4001" rx="12.5" ry="12.5" style="stroke:#181818;stroke-width:0.5;" width="56" x="326.5" y="11"/><text fill="#000000" font-family="sans-serif" font-size="12" lengthAdjust="spacing" textLength="36" x="336.5" y="32.1481">INICIO</text><rect fill="#FFC6C6" height="34.4001" rx="12.5" ry="12.5" style="stroke:#181818;stroke-width:0.5;" width="111" x="299" y="65.4001"/><text fill="#000000" font-family="sans-serif" font-size="12" lengthAdjust="spacing" textLength="91" x="309" y="86.5482">1.1 - tiempo = 4h</text><rect fill="#FFC6C6" height="34.4001" rx="12.5" ry="12.5" style="stroke:#181818;stroke-width:0.5;" width="118" x="295.5" y="119.8002"/><text fill="#000000" font-family="sans-serif" font-size="12" lengthAdjust="spacing" textLength="98" x="305.5" y="140.9483">1.2 - tiempo = 20h</text><line style="stroke:#181818;stroke-width:1.5;" x1="70" x2="570" y1="174.2003" y2="174.2003"/><rect fill="#B0C9FB" height="34.4001" rx="12.5" ry="12.5" style="stroke:#181818;stroke-width:0.5;" width="111" x="14.5" y="228.9004"/><text fill="#000000" font-family="sans-serif" font-size="12" lengthAdjust="spacing" textLength="91" x="24.5" y="250.0484">2.1 - tiempo = 3h</text><rect fill="#B0C9FB" height="34.4001" rx="12.5" ry="12.5" style="stroke:#181818;stroke-width:0.5;" width="118" x="11" y="298.3005"/><text fill="#000000" font-family="sans-serif" font-size="12" lengthAdjust="spacing" textLength="98" x="21" y="319.4485">2.2 - tiempo = 10h</text><rect fill="#B0C9FB" height="34.4001" rx="12.5" ry="12.5" style="stroke:#181818;stroke-width:0.5;" width="118" x="11" y="367.7006"/><text fill="#000000" font-family="sans-serif" font-size="12" lengthAdjust="spacing" textLength="98" x="21" y="388.8486">2.3 - tiempo = 20h</text><rect fill="#B0FBF9" height="34.4001" rx="12.5" ry="12.5" style="stroke:#181818;stroke-width:0.5;" width="111" x="139" y="194.2003"/><text fill="#000000" font-family="sans-serif" font-size="12" lengthAdjust="spacing" textLength="91" x="149" y="215.3484">3.1 - tiempo = 2h</text><rect fill="#B0FBF9" height="34.4001" rx="12.5" ry="12.5" style="stroke:#181818;stroke-width:0.5;" width="111" x="139" y="263.6004"/><text fill="#000000" font-family="sans-serif" font-size="12" lengthAdjust="spacing" textLength="91" x="149" y="284.7485">3.2 - tiempo = 4h</text><rect fill="#B0FBF9" height="34.4001" rx="12.5" ry="12.5" style="stroke:#181818;stroke-width:0.5;" width="111" x="139" y="333.0005"/><text fill="#000000" font-family="sans-serif" font-size="12" lengthAdjust="spacing" textLength="91" x="149" y="354.1486">3.3 - tiempo = 6h</text><rect fill="#B0FBF9" height="34.4001" rx="12.5" ry="12.5" style="stroke:#181818;stroke-width:0.5;" width="111" x="139" y="402.4006"/><text fill="#000000" font-family="sans-serif" font-size="12" lengthAdjust="spacing" textLength="91" x="149" y="423.5487">3.4 - tiempo = 4h</text><rect fill="#B0FBBF" height="34.4001" rx="12.5" ry="12.5" style="stroke:#181818;stroke-width:0.5;" width="118" x="278" y="228.9004"/><text fill="#000000" font-family="sans-serif" font-size="12" lengthAdjust="spacing" textLength="98" x="288" y="250.0484">4.1 - tiempo = 12h</text><rect fill="#B0FBBF" height="34.4001" rx="12.5" ry="12.5" style="stroke:#181818;stroke-width:0.5;" width="118" x="278" y="298.3005"/><text fill="#000000" font-family="sans-serif" font-size="12" lengthAdjust="spacing" textLength="98" x="288" y="319.4485">4.2 - tiempo = 30h</text><rect fill="#B0FBBF" height="34.4001" rx="12.5" ry="12.5" style="stroke:#181818;stroke-width:0.5;" width="111" x="281.5" y="367.7006"/><text fill="#000000" font-family="sans-serif" font-size="12" lengthAdjust="spacing" textLength="91" x="291.5" y="388.8486">4.3 - tiempo = 4h</text><line style="stroke:#181818;stroke-width:1.5;" x1="497" x2="643" y1="242.1004" y2="242.1004"/><rect fill="#FBF9B0" height="34.4001" rx="12.5" ry="12.5" style="stroke:#181818;stroke-width:0.5;" width="118" x="438" y="263.6004"/><text fill="#000000" font-family="sans-serif" font-size="12" lengthAdjust="spacing" textLength="98" x="448" y="284.7485">5.1 - tiempo = 20h</text><rect fill="#FBF9B0" height="34.4001" rx="12.5" ry="12.5" style="stroke:#181818;stroke-width:0.5;" width="118" x="438" y="333.0005"/><text fill="#000000" font-family="sans-serif" font-size="12" lengthAdjust="spacing" textLength="98" x="448" y="354.1486">5.2 - tiempo = 20h</text><rect fill="#FBF9B0" height="34.4001" rx="12.5" ry="12.5" style="stroke:#181818;stroke-width:0.5;" width="118" x="584" y="298.3005"/><text fill="#000000" font-family="sans-serif" font-size="12" lengthAdjust="spacing" textLength="98" x="594" y="319.4485">5.3 - tiempo = 10h</text><line style="stroke:#181818;stroke-width:1.5;" x1="497" x2="643" y1="387.4006" y2="387.4006"/><line style="stroke:#181818;stroke-width:1.5;" x1="70" x2="570" y1="456.8007" y2="456.8007"/><line style="stroke:#181818;stroke-width:1.5;" x1="281.5" x2="431" y1="476.8007" y2="476.8007"/><rect fill="#FBDAB0" height="34.4001" rx="12.5" ry="12.5" style="stroke:#181818;stroke-width:0.5;" width="118" x="222.5" y="531.5008"/><text fill="#000000" font-family="sans-serif" font-size="12" lengthAdjust="spacing" textLength="98" x="232.5" y="552.6488">6.1 - tiempo = 40h</text><rect fill="#FBDAB0" height="34.4001" rx="12.5" ry="12.5" style="stroke:#181818;stroke-width:0.5;" width="118" x="222.5" y="600.9009"/><text fill="#000000" font-family="sans-serif" font-size="12" lengthAdjust="spacing" textLength="98" x="232.5" y="622.0489">6.2 - tiempo = 30h</text><rect fill="#FBDAB0" height="34.4001" rx="12.5" ry="12.5" style="stroke:#181818;stroke-width:0.5;" width="125" x="219" y="670.301"/><text fill="#000000" font-family="sans-serif" font-size="12" lengthAdjust="spacing" textLength="105" x="229" y="691.449">6.3 - tiempo = 110h</text><rect fill="#FBB0F4" height="34.4001" rx="12.5" ry="12.5" style="stroke:#181818;stroke-width:0.5;" width="118" x="372" y="496.8007"/><text fill="#000000" font-family="sans-serif" font-size="12" lengthAdjust="spacing" textLength="98" x="382" y="517.9488">7.1 - tiempo = 20h</text><rect fill="#FBB0F4" height="34.4001" rx="12.5" ry="12.5" style="stroke:#181818;stroke-width:0.5;" width="118" x="372" y="566.2008"/><text fill="#000000" font-family="sans-serif" font-size="12" lengthAdjust="spacing" textLength="98" x="382" y="587.3489">7.2 - tiempo = 40h</text><rect fill="#FBB0F4" height="34.4001" rx="12.5" ry="12.5" style="stroke:#181818;stroke-width:0.5;" width="118" x="372" y="635.6009"/><text fill="#000000" font-family="sans-serif" font-size="12" lengthAdjust="spacing" textLength="98" x="382" y="656.749">7.3 - tiempo = 20h</text><rect fill="#FBB0F4" height="34.4001" rx="12.5" ry="12.5" style="stroke:#181818;stroke-width:0.5;" width="118" x="372" y="705.001"/><text fill="#000000" font-family="sans-serif" font-size="12" lengthAdjust="spacing" textLength="98" x="382" y="726.1491">7.4 - tiempo = 10h</text><line style="stroke:#181818;stroke-width:1.5;" x1="281.5" x2="431" y1="759.4011" y2="759.4011"/><rect fill="#D6FBB0" height="34.4001" rx="12.5" ry="12.5" style="stroke:#181818;stroke-width:0.5;" width="118" x="295.5" y="779.4011"/><text fill="#000000" font-family="sans-serif" font-size="12" lengthAdjust="spacing" textLength="98" x="305.5" y="800.5492">8.1 - tiempo = 40h</text><rect fill="#D6FBB0" height="34.4001" rx="12.5" ry="12.5" style="stroke:#181818;stroke-width:0.5;" width="118" x="295.5" y="833.8012"/><text fill="#000000" font-family="sans-serif" font-size="12" lengthAdjust="spacing" textLength="98" x="305.5" y="854.9493">8.2 - tiempo = 10h</text><rect fill="#FBC1B0" height="34.4001" rx="12.5" ry="12.5" style="stroke:#181818;stroke-width:0.5;" width="118" x="295.5" y="888.2013"/><text fill="#000000" font-family="sans-serif" font-size="12" lengthAdjust="spacing" textLength="98" x="305.5" y="909.3494">9.1 - tiempo = 40h</text><rect fill="#FBC1B0" height="34.4001" rx="12.5" ry="12.5" style="stroke:#181818;stroke-width:0.5;" width="118" x="295.5" y="942.6014"/><text fill="#000000" font-family="sans-serif" font-size="12" lengthAdjust="spacing" textLength="98" x="305.5" y="963.7495">9.2 - tiempo = 40h</text><rect fill="#FBC1B0" height="34.4001" rx="12.5" ry="12.5" style="stroke:#181818;stroke-width:0.5;" width="118" x="295.5" y="997.0015"/><text fill="#000000" font-family="sans-serif" font-size="12" lengthAdjust="spacing" textLength="98" x="305.5" y="1018.1496">9.3 - tiempo = 32h</text><rect fill="#F1F1F1" height="34.4001" rx="12.5" ry="12.5" style="stroke:#181818;stroke-width:0.5;" width="39" x="335" y="1051.4016"/><text fill="#000000" font-family="sans-serif" font-size="12" lengthAdjust="spacing" textLength="19" x="345" y="1072.5497">FIN</text><line style="stroke:#FF0000;stroke-width:2.0;" x1="354.5" x2="354.5" y1="45.4001" y2="65.4001"/><polygon fill="#FF0000" points="350.5,55.4001,354.5,65.4001,358.5,55.4001,354.5,59.4001" style="stroke:#FF0000;stroke-width:1.0;"/><line style="stroke:#FF0000;stroke-width:2.0;" x1="354.5" x2="354.5" y1="99.8002" y2="119.8002"/><polygon fill="#FF0000" points="350.5,109.8002,354.5,119.8002,358.5,109.8002,354.5,113.8002" style="stroke:#FF0000;stroke-width:1.0;"/><line style="stroke:#0000FF;stroke-width:1.0;" x1="70" x2="70" y1="263.3005" y2="298.3005"/><polygon fill="#0000FF" points="66,288.3005,70,298.3005,74,288.3005,70,292.3005" style="stroke:#0000FF;stroke-width:1.0;"/><line style="stroke:#0000FF;stroke-width:1.0;" x1="70" x2="70" y1="332.7006" y2="367.7006"/><polygon fill="#0000FF" points="66,357.7006,70,367.7006,74,357.7006,70,361.7006" style="stroke:#0000FF;stroke-width:1.0;"/><line style="stroke:#FF0000;stroke-width:2.0;" x1="194.5" x2="194.5" y1="228.6004" y2="263.6004"/><polygon fill="#FF0000" points="190.5,253.6004,194.5,263.6004,198.5,253.6004,194.5,257.6004" style="stroke:#FF0000;stroke-width:1.0;"/><line style="stroke:#FF0000;stroke-width:2.0;" x1="194.5" x2="194.5" y1="298.0005" y2="333.0005"/><polygon fill="#FF0000" points="190.5,323.0005,194.5,333.0005,198.5,323.0005,194.5,327.0005" style="stroke:#FF0000;stroke-width:1.0;"/><line style="stroke:#FF0000;stroke-width:2.0;" x1="194.5" x2="194.5" y1="367.4006" y2="402.4006"/><polygon fill="#FF0000" points="190.5,392.4006,194.5,402.4006,198.5,392.4006,194.5,396.4006" style="stroke:#FF0000;stroke-width:1.0;"/><line style="stroke:#181818;stroke-width:1.5;stroke-dasharray:7.0,7.0;" x1="337" x2="337" y1="263.3005" y2="298.3005"/><polygon fill="#181818" points="333,288.3005,337,298.3005,341,288.3005,337,292.3005" style="stroke:#181818;stroke-width:1.0;"/><line style="stroke:#181818;stroke-width:1.5;stroke-dasharray:7.0,7.0;" x1="337" x2="337" y1="332.7006" y2="367.7006"/><polygon fill="#181818" points="333,357.7006,337,367.7006,341,357.7006,337,361.7006" style="stroke:#181818;stroke-width:1.0;"/><line style="stroke:#181818;stroke-width:1.0;" x1="497" x2="497" y1="298.0005" y2="333.0005"/><polygon fill="#181818" points="493,323.0005,497,333.0005,501,323.0005,497,327.0005" style="stroke:#181818;stroke-width:1.0;"/><line style="stroke:#181818;stroke-width:1.0;" x1="497" x2="497" y1="243.6004" y2="263.6004"/><polygon fill="#181818" points="493,253.6004,497,263.6004,501,253.6004,497,257.6004" style="stroke:#181818;stroke-width:1.0;"/><line style="stroke:#181818;stroke-width:1.5;stroke-dasharray:7.0,7.0;" x1="643" x2="643" y1="243.6004" y2="298.3005"/><polygon fill="#181818" points="639,288.3005,643,298.3005,647,288.3005,643,292.3005" style="stroke:#181818;stroke-width:1.0;"/><line style="stroke:#181818;stroke-width:1.0;" x1="497" x2="497" y1="367.4006" y2="387.4006"/><polygon fill="#181818" points="493,377.4006,497,387.4006,501,377.4006,497,381.4006" style="stroke:#181818;stroke-width:1.0;"/><line style="stroke:#181818;stroke-width:1.5;stroke-dasharray:7.0,7.0;" x1="643" x2="643" y1="332.7006" y2="387.4006"/><polygon fill="#181818" points="639,377.4006,643,387.4006,647,377.4006,643,381.4006" style="stroke:#181818;stroke-width:1.0;"/><line style="stroke:#0000FF;stroke-width:1.0;" x1="70" x2="70" y1="175.7003" y2="228.9004"/><polygon fill="#0000FF" points="66,218.9004,70,228.9004,74,218.9004,70,222.9004" style="stroke:#0000FF;stroke-width:1.0;"/><line style="stroke:#FF0000;stroke-width:2.0;" x1="194.5" x2="194.5" y1="175.7003" y2="194.2003"/><polygon fill="#FF0000" points="190.5,184.2003,194.5,194.2003,198.5,184.2003,194.5,188.2003" style="stroke:#FF0000;stroke-width:1.0;"/><line style="stroke:#181818;stroke-width:1.5;stroke-dasharray:7.0,7.0;" x1="337" x2="337" y1="175.7003" y2="228.9004"/><polygon fill="#181818" points="333,218.9004,337,228.9004,341,218.9004,337,222.9004" style="stroke:#181818;stroke-width:1.0;"/><line style="stroke:#181818;stroke-width:1.0;" x1="570" x2="570" y1="175.7003" y2="242.1004"/><polygon fill="#181818" points="566,232.1004,570,242.1004,574,232.1004,570,236.1004" style="stroke:#181818;stroke-width:1.0;"/><line style="stroke:#0000FF;stroke-width:1.0;" x1="70" x2="70" y1="402.1007" y2="456.8007"/><polygon fill="#0000FF" points="66,446.8007,70,456.8007,74,446.8007,70,450.8007" style="stroke:#0000FF;stroke-width:1.0;"/><line style="stroke:#FF0000;stroke-width:2.0;" x1="194.5" x2="194.5" y1="436.8007" y2="456.8007"/><polygon fill="#FF0000" points="190.5,446.8007,194.5,456.8007,198.5,446.8007,194.5,450.8007" style="stroke:#FF0000;stroke-width:1.0;"/><line style="stroke:#181818;stroke-width:1.5;stroke-dasharray:7.0,7.0;" x1="337" x2="337" y1="402.1007" y2="456.8007"/><polygon fill="#181818" points="333,446.8007,337,456.8007,341,446.8007,337,450.8007" style="stroke:#181818;stroke-width:1.0;"/><line style="stroke:#181818;stroke-width:1.0;" x1="570" x2="570" y1="388.9006" y2="456.8007"/><polygon fill="#181818" points="566,446.8007,570,456.8007,574,446.8007,570,450.8007" style="stroke:#181818;stroke-width:1.0;"/><line style="stroke:#FF0000;stroke-width:2.0;" x1="354.5" x2="354.5" y1="154.2003" y2="174.2003"/><polygon fill="#FF0000" points="350.5,164.2003,354.5,174.2003,358.5,164.2003,354.5,168.2003" style="stroke:#FF0000;stroke-width:1.0;"/><line style="stroke:#FF0000;stroke-width:2.0;" x1="281.5" x2="281.5" y1="565.9009" y2="600.9009"/><polygon fill="#FF0000" points="277.5,590.9009,281.5,600.9009,285.5,590.9009,281.5,594.9009" style="stroke:#FF0000;stroke-width:1.0;"/><line style="stroke:#FF0000;stroke-width:2.0;" x1="281.5" x2="281.5" y1="635.301" y2="670.301"/><polygon fill="#FF0000" points="277.5,660.301,281.5,670.301,285.5,660.301,281.5,664.301" style="stroke:#FF0000;stroke-width:1.0;"/><line style="stroke:#0000FF;stroke-width:1.0;" x1="431" x2="431" y1="531.2008" y2="566.2008"/><polygon fill="#0000FF" points="427,556.2008,431,566.2008,435,556.2008,431,560.2008" style="stroke:#0000FF;stroke-width:1.0;"/><line style="stroke:#0000FF;stroke-width:1.0;" x1="431" x2="431" y1="600.6009" y2="635.6009"/><polygon fill="#0000FF" points="427,625.6009,431,635.6009,435,625.6009,431,629.6009" style="stroke:#0000FF;stroke-width:1.0;"/><line style="stroke:#0000FF;stroke-width:1.0;" x1="431" x2="431" y1="670.001" y2="705.001"/><polygon fill="#0000FF" points="427,695.001,431,705.001,435,695.001,431,699.001" style="stroke:#0000FF;stroke-width:1.0;"/><line style="stroke:#FF0000;stroke-width:2.0;" x1="281.5" x2="281.5" y1="478.3007" y2="531.5008"/><polygon fill="#FF0000" points="277.5,521.5008,281.5,531.5008,285.5,521.5008,281.5,525.5008" style="stroke:#FF0000;stroke-width:1.0;"/><line style="stroke:#0000FF;stroke-width:1.0;" x1="431" x2="431" y1="478.3007" y2="496.8007"/><polygon fill="#0000FF" points="427,486.8007,431,496.8007,435,486.8007,431,490.8007" style="stroke:#0000FF;stroke-width:1.0;"/><line style="stroke:#FF0000;stroke-width:2.0;" x1="281.5" x2="281.5" y1="704.7011" y2="759.4011"/><polygon fill="#FF0000" points="277.5,749.4011,281.5,759.4011,285.5,749.4011,281.5,753.4011" style="stroke:#FF0000;stroke-width:1.0;"/><line style="stroke:#0000FF;stroke-width:1.0;" x1="431" x2="431" y1="739.4011" y2="759.4011"/><polygon fill="#0000FF" points="427,749.4011,431,759.4011,435,749.4011,431,753.4011" style="stroke:#0000FF;stroke-width:1.0;"/><line style="stroke:#FF0000;stroke-width:2.0;" x1="354.5" x2="354.5" y1="458.3007" y2="476.8007"/><polygon fill="#FF0000" points="350.5,466.8007,354.5,476.8007,358.5,466.8007,354.5,470.8007" style="stroke:#FF0000;stroke-width:1.0;"/><line style="stroke:#FF0000;stroke-width:2.0;" x1="354.5" x2="354.5" y1="760.9011" y2="779.4011"/><polygon fill="#FF0000" points="350.5,769.4011,354.5,779.4011,358.5,769.4011,354.5,773.4011" style="stroke:#FF0000;stroke-width:1.0;"/><line style="stroke:#FF0000;stroke-width:2.0;" x1="354.5" x2="354.5" y1="813.8012" y2="833.8012"/><polygon fill="#FF0000" points="350.5,823.8012,354.5,833.8012,358.5,823.8012,354.5,827.8012" style="stroke:#FF0000;stroke-width:1.0;"/><line style="stroke:#FF0000;stroke-width:2.0;" x1="354.5" x2="354.5" y1="868.2013" y2="888.2013"/><polygon fill="#FF0000" points="350.5,878.2013,354.5,888.2013,358.5,878.2013,354.5,882.2013" style="stroke:#FF0000;stroke-width:1.0;"/><line style="stroke:#FF0000;stroke-width:2.0;" x1="354.5" x2="354.5" y1="922.6014" y2="942.6014"/><polygon fill="#FF0000" points="350.5,932.6014,354.5,942.6014,358.5,932.6014,354.5,936.6014" style="stroke:#FF0000;stroke-width:1.0;"/><line style="stroke:#FF0000;stroke-width:2.0;" x1="354.5" x2="354.5" y1="977.0015" y2="997.0015"/><polygon fill="#FF0000" points="350.5,987.0015,354.5,997.0015,358.5,987.0015,354.5,991.0015" style="stroke:#FF0000;stroke-width:1.0;"/><line style="stroke:#FF0000;stroke-width:2.0;" x1="354.5" x2="354.5" y1="1031.4016" y2="1051.4016"/><polygon fill="#FF0000" points="350.5,1041.4016,354.5,1051.4016,358.5,1041.4016,354.5,1045.4016" style="stroke:#FF0000;stroke-width:1.0;"/><!--SRC=[ZPJBJeGm58RtVOecB6OZfXT4wKGJOsB2Pdm0uu9Iwf3WC84nlhwKs_G6mwxGh__vpwNTmTUcgVzQi8FXPz0KuWxokX9VuKl_HsJjiUY_063f8NrBF_PW12SE15BcSHupV8zX22zbyNEkuJECZWvw9ObE4kIYe3rNvGL0POjNluNw1s70KPv8peWPYdRd5qaZ54PhA7LS6UZW2MRVMNa2mvPkkLUIN2QCclR89BH44xjkgxJXChv5HpUrtRIkRH-Lk6IHcHEUalApHaOKhRBKvr2RFClUD1YTX4gH8_PWbNi8f-yJpxukgsZJddwQUYR8vekJcAm1jHwN_gdsTanoaNNXOkiMeOK6pxY_r8kucGn6soP2lovTsv2CsAEtwWieyUVaG-bsrMZzQgyr8X2nac5FddBRhzQCka-9-nRo77Tiia5sHibsr2WE9Hu7x3qzxC4_]--></g></svg>